<?xml version="1.0" encoding="utf-8"?>
<!-- Generator: Adobe Illustrator 21.0.0, SVG Export Plug-In . SVG Version: 6.00 Build 0)  -->
<svg version="1.1" id="Layer_1" xmlns="http://www.w3.org/2000/svg" xmlns:xlink="http://www.w3.org/1999/xlink" x="0px" y="0px"
	 viewBox="0 0 512 512" style="enable-background:new 0 0 512 512;" xml:space="preserve">
<style type="text/css">
	.st0{fill:#636363;}
	.st1{fill:#FFFFFF;}
</style>
<path class="st0" d="M256,504c-5.5,0-10.5-3.1-13-8l-44.7-89.4C112.2,381.2,52.6,301.9,52.6,211.4C52.6,99.3,143.8,8,256,8
	s203.4,91.3,203.4,203.4c0,90.4-59.6,169.7-145.7,195.1L269,496C266.5,500.9,261.5,504,256,504z"/>
<g id="Group_18" transform="translate(15.36 129.52)">
	<path id="Path_27" class="st1" d="M311.3,58.9l-59.1,165.7h-36.9l-86-244.7h35.1l69.8,212.2h0.7l44.3-133.2H311.3z"/>
	<path id="Path_28" class="st1" d="M351.9,15.4v32.5H225.3V15.4h62l12.9,12.9V-3.8l9.2-27.7h34L326.8,15L351.9,15.4z"/>
</g>
</svg>
