<?xml version="1.0" encoding="utf-8"?>
<!-- Generator: Adobe Illustrator 21.0.0, SVG Export Plug-In . SVG Version: 6.00 Build 0)  -->
<svg version="1.1" id="Layer_1" xmlns="http://www.w3.org/2000/svg" xmlns:xlink="http://www.w3.org/1999/xlink" x="0px" y="0px"
	 viewBox="0 0 30 30" style="enable-background:new 0 0 30 30;" xml:space="preserve">
<style type="text/css">
	.st0{fill:#FFFFFF;}
</style>
<path class="st0" d="M11.7,0.5H2.6c-1.2,0-2.1,0.9-2.1,2.1v5.4c0,1.2,0.9,2.1,2.1,2.1h9.1c1.2,0,2.1-0.9,2.1-2.1V2.6
	C13.8,1.5,12.8,0.5,11.7,0.5z"/>
<path class="st0" d="M11.7,12.6H2.6c-1.2,0-2.1,0.9-2.1,2.1v12.7c0,1.2,0.9,2.1,2.1,2.1h9.1c1.2,0,2.1-0.9,2.1-2.1V14.7
	C13.8,13.5,12.8,12.6,11.7,12.6z"/>
<path class="st0" d="M27.4,19.8h-9.1c-1.2,0-2.1,0.9-2.1,2.1v5.4c0,1.2,0.9,2.1,2.1,2.1h9.1c1.2,0,2.1-0.9,2.1-2.1v-5.4
	C29.5,20.8,28.5,19.8,27.4,19.8z"/>
<path class="st0" d="M27.4,0.5h-9.1c-1.2,0-2.1,0.9-2.1,2.1v12.7c0,1.2,0.9,2.1,2.1,2.1h9.1c1.2,0,2.1-0.9,2.1-2.1V2.6
	C29.5,1.5,28.5,0.5,27.4,0.5z"/>
</svg>
