<?xml version="1.0" encoding="utf-8"?>
<!-- Generator: Adobe Illustrator 21.0.0, SVG Export Plug-In . SVG Version: 6.00 Build 0)  -->
<svg version="1.1" id="Layer_1" xmlns="http://www.w3.org/2000/svg" xmlns:xlink="http://www.w3.org/1999/xlink" x="0px" y="0px"
	 viewBox="0 0 183 58" style="enable-background:new 0 0 183 58;" xml:space="preserve">
<style type="text/css">
	.st0{fill:url(#Ellipse_1_1_);}
	.st1{fill:#FFFFFF;}
	.st2{enable-background:new    ;}
	.st3{fill:#282828;}
</style>
<g id="Group_1" transform="translate(-124 -263)">
	
		<linearGradient id="Ellipse_1_1_" gradientUnits="userSpaceOnUse" x1="-36.3274" y1="-89.3985" x2="-36.1594" y2="-89.0429" gradientTransform="matrix(103 0 0 103 3888 9481.668)">
		<stop  offset="0" style="stop-color:#49D7E6"/>
		<stop  offset="1" style="stop-color:#0581FC"/>
	</linearGradient>
	<circle id="Ellipse_1" class="st0" cx="154.4" cy="290.8" r="24"/>
	<g id="Group_18" transform="translate(15.36 129.52)">
		<path id="Path_27" class="st1" d="M148.7,164.5l-7.4,20.9h-4.7l-10.8-30.9h4.4l8.8,26.8h0.1l5.6-16.8H148.7z"/>
		<path id="Path_28" class="st1" d="M153.8,159v4.1h-16V159h7.8l1.6,1.6v-4l1.2-3.5h4.3l-2.1,5.9L153.8,159z"/>
	</g>
</g>
<g class="st2">
	<path class="st3" d="M68.2,25.6L64.1,14h1.6l3.3,10.2l0,0L72.4,14H74l-4.2,11.6H68.2z"/>
	<path class="st3" d="M74.9,15.6v-1.7h1.4v1.7H74.9z M76.3,17.2v8.4h-1.4v-8.4L76.3,17.2z"/>
	<path class="st3" d="M79.5,23.7c0.1,0.2,0.3,0.4,0.5,0.5c0.2,0.1,0.5,0.2,0.7,0.3c0.3,0.1,0.5,0.1,0.8,0.1c0.2,0,0.5,0,0.7-0.1
		c0.2-0.1,0.5-0.1,0.7-0.2c0.2-0.1,0.3-0.2,0.5-0.4c0.1-0.2,0.2-0.4,0.2-0.6c0-0.3-0.1-0.6-0.4-0.8c-0.3-0.2-0.6-0.3-1-0.5
		c-0.4-0.1-0.9-0.2-1.4-0.3c-0.5-0.1-1-0.2-1.4-0.4c-0.4-0.2-0.7-0.4-1-0.7c-0.3-0.3-0.4-0.7-0.4-1.3c0-0.4,0.1-0.8,0.3-1.1
		c0.2-0.3,0.4-0.5,0.7-0.7c0.3-0.2,0.6-0.3,1-0.4s0.7-0.1,1.1-0.1c0.5,0,1,0.1,1.3,0.1c0.4,0.1,0.7,0.2,1.1,0.4
		c0.3,0.2,0.5,0.5,0.7,0.8c0.2,0.3,0.3,0.7,0.3,1.3h-1.4c0-0.3-0.1-0.5-0.2-0.7c-0.1-0.2-0.3-0.3-0.5-0.4c-0.2-0.1-0.4-0.2-0.6-0.2
		c-0.2-0.1-0.5-0.1-0.7-0.1c-0.2,0-0.4,0-0.6,0.1c-0.2,0.1-0.4,0.1-0.6,0.2c-0.2,0.1-0.3,0.2-0.4,0.3c-0.1,0.1-0.1,0.3-0.1,0.5
		c0,0.3,0.1,0.4,0.3,0.6c0.1,0.1,0.4,0.3,0.6,0.4c0.3,0.1,0.5,0.2,0.9,0.3c0.3,0.1,0.7,0.1,1,0.2c0.3,0.1,0.7,0.1,1,0.3
		c0.3,0.1,0.6,0.3,0.9,0.4c0.3,0.2,0.5,0.4,0.6,0.7c0.1,0.3,0.2,0.6,0.2,1c0,0.5-0.1,1-0.3,1.3s-0.5,0.6-0.8,0.8
		c-0.3,0.2-0.7,0.3-1.2,0.4c-0.4,0.1-0.9,0.1-1.3,0.1c-0.5,0-0.9-0.1-1.4-0.1c-0.4-0.1-0.8-0.3-1.2-0.5c-0.3-0.2-0.6-0.5-0.8-0.9
		c-0.2-0.3-0.3-0.8-0.3-1.4h1.4C79.3,23.2,79.4,23.5,79.5,23.7z"/>
	<path class="st3" d="M92.3,25.6v-1.4l0,0c-0.3,0.5-0.7,0.9-1.2,1.2c-0.5,0.3-1,0.3-1.6,0.3c-0.5,0-1-0.1-1.4-0.2
		c-0.3-0.1-0.7-0.3-0.9-0.6c-0.2-0.3-0.4-0.6-0.5-1c-0.1-0.4-0.1-0.8-0.1-1.2v-5.6H88v5.7c0,0.5,0.1,1,0.5,1.2
		c0.3,0.3,0.7,0.5,1.2,0.5c0.4,0,0.8-0.1,1.1-0.2c0.3-0.1,0.5-0.3,0.7-0.5c0.2-0.3,0.3-0.5,0.5-0.8c0.1-0.3,0.1-0.7,0.1-1v-4.8h1.4
		v8.4L92.3,25.6L92.3,25.6z"/>
	<path class="st3" d="M103.2,25.6c-0.3,0.1-0.5,0.2-1,0.2c-0.3,0-0.6-0.1-0.9-0.3c-0.3-0.2-0.3-0.5-0.3-1c-0.4,0.5-0.8,0.8-1.4,1
		c-0.5,0.2-1,0.3-1.6,0.3c-0.4,0-0.7-0.1-1.1-0.1c-0.3-0.1-0.6-0.2-0.9-0.4c-0.3-0.2-0.5-0.4-0.6-0.7c-0.1-0.3-0.2-0.7-0.2-1.1
		c0-0.5,0.1-0.9,0.3-1.2c0.1-0.3,0.4-0.5,0.6-0.7c0.2-0.2,0.5-0.3,0.9-0.4c0.3-0.1,0.7-0.2,1-0.3c0.4-0.1,0.7-0.1,1.1-0.2
		c0.3-0.1,0.6-0.1,0.9-0.1c0.3-0.1,0.5-0.2,0.6-0.3c0.1-0.1,0.2-0.3,0.2-0.6c0-0.3-0.1-0.5-0.2-0.7c-0.1-0.2-0.3-0.3-0.4-0.4
		c-0.2-0.1-0.4-0.1-0.6-0.2c-0.2,0-0.5-0.1-0.7-0.1c-0.6,0-1.1,0.1-1.5,0.3c-0.4,0.2-0.6,0.6-0.6,1.3h-1.4c0-0.5,0.1-1,0.3-1.3
		c0.2-0.3,0.5-0.7,0.8-0.9c0.3-0.2,0.7-0.4,1.1-0.5c0.4-0.1,0.9-0.1,1.4-0.1c0.4,0,0.7,0,1.2,0.1c0.4,0.1,0.7,0.1,1,0.3
		c0.3,0.1,0.5,0.4,0.7,0.7c0.2,0.3,0.3,0.7,0.3,1.2v4.4c0,0.3,0,0.5,0.1,0.7c0.1,0.1,0.1,0.2,0.4,0.2c0.1,0,0.3,0,0.4-0.1v1.2H103.2
		z M101,21.3c-0.2,0.1-0.4,0.2-0.7,0.3c-0.3,0.1-0.6,0.1-0.9,0.1c-0.3,0.1-0.6,0.1-1,0.1c-0.3,0.1-0.6,0.1-0.8,0.2
		c-0.3,0.1-0.5,0.3-0.6,0.5c-0.1,0.2-0.2,0.5-0.2,0.8c0,0.2,0.1,0.4,0.1,0.5c0.1,0.1,0.2,0.3,0.3,0.4c0.1,0.1,0.3,0.1,0.5,0.2
		c0.2,0.1,0.4,0.1,0.6,0.1c0.5,0,0.8-0.1,1.2-0.2c0.3-0.1,0.6-0.3,0.8-0.5c0.2-0.2,0.3-0.4,0.5-0.6c0.1-0.2,0.1-0.4,0.1-0.6
		L101,21.3L101,21.3z"/>
	<path class="st3" d="M106,13.9v11.6h-1.4V13.9H106z"/>
	<path class="st3" d="M111.7,15.3V14h9.3v1.3h-3.9v10.4h-1.6V15.3L111.7,15.3z"/>
	<path class="st3" d="M127.7,25.6c-0.3,0.1-0.5,0.2-1,0.2c-0.3,0-0.6-0.1-0.9-0.3c-0.2-0.2-0.3-0.5-0.3-1c-0.4,0.5-0.8,0.8-1.4,1
		c-0.5,0.2-1,0.3-1.6,0.3c-0.4,0-0.7-0.1-1.1-0.1c-0.3-0.1-0.6-0.2-0.9-0.4c-0.3-0.2-0.5-0.4-0.6-0.7c-0.1-0.3-0.2-0.7-0.2-1.1
		c0-0.5,0.1-0.9,0.3-1.2c0.1-0.3,0.4-0.5,0.6-0.7c0.3-0.2,0.5-0.3,0.9-0.4c0.3-0.1,0.7-0.2,1-0.3c0.4-0.1,0.7-0.1,1.1-0.2
		c0.3-0.1,0.6-0.1,0.9-0.1c0.3-0.1,0.5-0.2,0.6-0.3c0.1-0.1,0.2-0.3,0.2-0.6c0-0.3-0.1-0.5-0.2-0.7c-0.1-0.2-0.3-0.3-0.4-0.4
		c-0.2-0.1-0.4-0.1-0.6-0.2s-0.5-0.1-0.7-0.1c-0.6,0-1.1,0.1-1.5,0.3c-0.4,0.2-0.6,0.6-0.6,1.3h-1.4c0-0.5,0.1-1,0.3-1.3
		c0.2-0.3,0.5-0.7,0.8-0.9c0.3-0.2,0.7-0.4,1.1-0.5c0.4-0.1,0.9-0.1,1.4-0.1c0.4,0,0.7,0,1.2,0.1c0.4,0.1,0.7,0.1,1,0.3
		c0.3,0.1,0.5,0.4,0.7,0.7c0.2,0.3,0.3,0.7,0.3,1.2v4.4c0,0.3,0,0.5,0.1,0.7c0.1,0.1,0.1,0.2,0.4,0.2c0.1,0,0.3,0,0.4-0.1v1.2H127.7
		z M125.5,21.3c-0.2,0.1-0.4,0.2-0.7,0.3c-0.3,0.1-0.6,0.1-0.9,0.1c-0.3,0.1-0.6,0.1-1,0.1c-0.3,0.1-0.6,0.1-0.8,0.2
		c-0.3,0.1-0.5,0.3-0.6,0.5c-0.1,0.2-0.2,0.5-0.2,0.8c0,0.2,0.1,0.4,0.1,0.5c0.1,0.1,0.2,0.3,0.3,0.4c0.1,0.1,0.3,0.1,0.5,0.2
		c0.2,0.1,0.4,0.1,0.6,0.1c0.5,0,0.8-0.1,1.2-0.2s0.6-0.3,0.8-0.5c0.2-0.2,0.3-0.4,0.5-0.6c0.1-0.2,0.1-0.4,0.1-0.6L125.5,21.3
		L125.5,21.3z"/>
	<path class="st3" d="M130.5,13.9v4.4l0,0c0.2-0.5,0.6-0.8,1.1-1c0.5-0.2,1-0.3,1.6-0.3c0.7,0,1.2,0.1,1.7,0.3
		c0.5,0.3,0.9,0.5,1.2,1c0.3,0.4,0.5,0.9,0.7,1.4c0.1,0.5,0.3,1.1,0.3,1.7s-0.1,1.2-0.2,1.7c-0.1,0.5-0.4,1-0.7,1.4s-0.7,0.7-1.2,1
		c-0.5,0.3-1,0.3-1.7,0.3c-0.2,0-0.4,0-0.7-0.1c-0.3-0.1-0.5-0.1-0.7-0.2c-0.3-0.1-0.5-0.2-0.7-0.4c-0.2-0.1-0.4-0.4-0.5-0.6l0,0
		v1.2h-1.4V14L130.5,13.9L130.5,13.9z M135.5,20.2c-0.1-0.4-0.3-0.7-0.5-1c-0.2-0.3-0.5-0.5-0.8-0.7c-0.3-0.2-0.7-0.3-1.2-0.3
		c-0.5,0-0.9,0.1-1.2,0.3c-0.3,0.2-0.6,0.4-0.8,0.7c-0.2,0.3-0.3,0.6-0.5,1c-0.1,0.4-0.1,0.7-0.1,1.2c0,0.4,0.1,0.8,0.1,1.2
		c0.1,0.4,0.3,0.7,0.5,1c0.2,0.3,0.5,0.5,0.8,0.7c0.3,0.2,0.7,0.3,1.2,0.3c0.5,0,0.9-0.1,1.2-0.3c0.3-0.2,0.6-0.4,0.7-0.7
		c0.2-0.3,0.3-0.7,0.4-1c0.1-0.4,0.1-0.8,0.1-1.2C135.6,20.9,135.6,20.5,135.5,20.2z"/>
</g>
<g class="st2">
	<path class="st3" d="M67.2,34.5c0.4,0,0.8,0.1,1.1,0.2c0.3,0.1,0.5,0.3,0.7,0.5s0.3,0.4,0.4,0.7c0.1,0.3,0.1,0.5,0.1,0.8
		c0,0.3-0.1,0.5-0.1,0.8c-0.1,0.3-0.2,0.5-0.4,0.7s-0.4,0.3-0.7,0.5c-0.3,0.1-0.7,0.2-1.1,0.2h-1.6v2.5h-1.5v-6.8H67.2z M66.8,37.7
		c0.2,0,0.3,0,0.5-0.1c0.1,0,0.3-0.1,0.4-0.1c0.1-0.1,0.2-0.2,0.3-0.3c0.1-0.1,0.1-0.3,0.1-0.5c0-0.2-0.1-0.4-0.1-0.5
		c-0.1-0.1-0.1-0.2-0.3-0.3c-0.1-0.1-0.3-0.1-0.4-0.1s-0.3-0.1-0.5-0.1h-1.2v2h1.2V37.7z"/>
	<path class="st3" d="M70.3,37.8c0.1-0.3,0.3-0.6,0.5-0.8c0.2-0.2,0.5-0.4,0.8-0.5c0.3-0.1,0.7-0.2,1-0.2c0.3,0,0.7,0.1,1,0.2
		c0.3,0.1,0.6,0.3,0.8,0.5c0.2,0.2,0.4,0.5,0.5,0.8c0.1,0.3,0.2,0.7,0.2,1.1c0,0.4-0.1,0.7-0.2,1.1s-0.3,0.6-0.5,0.8
		c-0.3,0.2-0.5,0.4-0.8,0.5c-0.3,0.1-0.7,0.2-1,0.2c-0.3,0-0.7-0.1-1-0.2c-0.3-0.1-0.5-0.3-0.8-0.5c-0.2-0.2-0.4-0.5-0.5-0.8
		s-0.2-0.7-0.2-1.1C70.2,38.4,70.2,38.1,70.3,37.8z M71.5,39.4c0.1,0.2,0.1,0.3,0.2,0.5c0.1,0.1,0.2,0.3,0.3,0.3s0.3,0.1,0.5,0.1
		c0.2,0,0.4-0.1,0.5-0.1c0.1-0.1,0.3-0.2,0.3-0.3c0.1-0.1,0.1-0.3,0.2-0.5c0.1-0.2,0.1-0.4,0.1-0.5c0-0.2,0-0.4-0.1-0.6
		c-0.1-0.2-0.1-0.3-0.2-0.5c-0.1-0.1-0.2-0.3-0.3-0.3c-0.1-0.1-0.3-0.1-0.5-0.1c-0.2,0-0.4,0.1-0.5,0.1c-0.1,0.1-0.3,0.2-0.3,0.3
		c-0.1,0.1-0.1,0.3-0.2,0.5s-0.1,0.4-0.1,0.6C71.5,39,71.5,39.2,71.5,39.4z"/>
	<path class="st3" d="M80.4,41.3L79.5,38l0,0l-0.8,3.3h-1.4l-1.6-4.9h1.4l0.9,3.3l0,0l0.8-3.3h1.3l0.8,3.3l0,0l0.9-3.3h1.4l-1.6,4.9
		H80.4z"/>
	<path class="st3" d="M85.4,40.1c0.2,0.2,0.5,0.3,0.9,0.3c0.3,0,0.5-0.1,0.7-0.2c0.2-0.1,0.3-0.3,0.3-0.4h1.2
		c-0.2,0.6-0.5,1-0.9,1.3c-0.4,0.3-0.9,0.4-1.4,0.4c-0.4,0-0.7-0.1-1-0.2c-0.3-0.1-0.5-0.3-0.8-0.5c-0.3-0.3-0.4-0.5-0.5-0.8
		c-0.1-0.3-0.2-0.7-0.2-1c0-0.3,0.1-0.7,0.2-1c0.1-0.3,0.3-0.6,0.5-0.8c0.2-0.2,0.5-0.4,0.8-0.5c0.3-0.1,0.7-0.2,1-0.2
		c0.4,0,0.8,0.1,1.1,0.3c0.3,0.1,0.5,0.4,0.7,0.7c0.2,0.3,0.3,0.6,0.4,1c0.1,0.3,0.1,0.7,0.1,1.1H85C85,39.6,85.2,39.9,85.4,40.1z
		 M86.9,37.5c-0.1-0.2-0.4-0.3-0.7-0.3c-0.2,0-0.4,0.1-0.5,0.1c-0.1,0.1-0.3,0.1-0.3,0.3c-0.1,0.1-0.1,0.2-0.2,0.3
		c-0.1,0.1-0.1,0.2-0.1,0.3h2.2C87.1,38,87.1,37.7,86.9,37.5z"/>
	<path class="st3" d="M90.7,36.3v0.9l0,0c0.1-0.1,0.1-0.3,0.3-0.4c0.1-0.1,0.2-0.3,0.3-0.3s0.3-0.1,0.5-0.2c0.1-0.1,0.3-0.1,0.5-0.1
		c0.1,0,0.2,0,0.3,0.1v1.2c-0.1,0-0.1,0-0.2,0c-0.1,0-0.2,0-0.3,0c-0.3,0-0.5,0.1-0.6,0.1c-0.2,0.1-0.3,0.2-0.4,0.3
		c-0.1,0.1-0.2,0.3-0.2,0.5s-0.1,0.4-0.1,0.6v2.2h-1.4v-4.9L90.7,36.3L90.7,36.3z"/>
	<path class="st3" d="M94.3,40.1c0.2,0.2,0.5,0.3,0.9,0.3c0.3,0,0.5-0.1,0.7-0.2c0.2-0.1,0.3-0.3,0.3-0.4h1.2
		c-0.2,0.6-0.5,1-0.9,1.3s-0.9,0.4-1.4,0.4c-0.4,0-0.7-0.1-1-0.2c-0.3-0.1-0.5-0.3-0.8-0.5s-0.4-0.5-0.5-0.8c-0.1-0.3-0.2-0.7-0.2-1
		c0-0.3,0.1-0.7,0.2-1c0.1-0.3,0.3-0.6,0.5-0.8c0.2-0.2,0.5-0.4,0.8-0.5s0.7-0.2,1-0.2c0.4,0,0.8,0.1,1.1,0.3
		c0.3,0.1,0.5,0.4,0.7,0.7c0.2,0.3,0.3,0.6,0.4,1c0.1,0.3,0.1,0.7,0.1,1.1H94C94,39.6,94.1,39.9,94.3,40.1z M95.8,37.5
		c-0.1-0.2-0.4-0.3-0.7-0.3c-0.2,0-0.4,0.1-0.5,0.1c-0.1,0.1-0.3,0.1-0.3,0.3c-0.1,0.1-0.1,0.2-0.2,0.3s-0.1,0.2-0.1,0.3h2.2
		C96.1,38,96.1,37.7,95.8,37.5z"/>
	<path class="st3" d="M101.8,40.7c-0.1,0.3-0.3,0.5-0.6,0.5c-0.3,0.1-0.5,0.2-0.9,0.2s-0.7-0.1-1-0.2c-0.3-0.1-0.5-0.3-0.7-0.6
		c-0.2-0.3-0.3-0.5-0.4-0.8c-0.1-0.3-0.1-0.7-0.1-1c0-0.3,0.1-0.7,0.1-1c0.1-0.3,0.2-0.6,0.4-0.8c0.2-0.2,0.4-0.4,0.7-0.5
		c0.3-0.1,0.6-0.2,1-0.2c0.3,0,0.5,0.1,0.8,0.2c0.3,0.1,0.5,0.3,0.6,0.5l0,0v-2.5h1.4v6.8h-1.3V40.7L101.8,40.7z M101.8,38.2
		c-0.1-0.2-0.1-0.3-0.2-0.5c-0.1-0.1-0.2-0.3-0.3-0.3c-0.1-0.1-0.3-0.1-0.5-0.1c-0.2,0-0.4,0.1-0.5,0.1c-0.1,0.1-0.3,0.2-0.3,0.3
		c-0.1,0.1-0.1,0.3-0.2,0.5c-0.1,0.2-0.1,0.4-0.1,0.6c0,0.2,0,0.4,0.1,0.5c0.1,0.2,0.1,0.3,0.2,0.5c0.1,0.1,0.2,0.3,0.3,0.3
		s0.3,0.1,0.5,0.1c0.2,0,0.4-0.1,0.5-0.1c0.1-0.1,0.3-0.2,0.3-0.3c0.1-0.1,0.1-0.3,0.2-0.5c0.1-0.2,0.1-0.4,0.1-0.6
		S101.8,38.4,101.8,38.2z"/>
	<path class="st3" d="M110.2,34.5c0.3,0,0.6,0,0.9,0.1c0.3,0.1,0.5,0.1,0.7,0.3c0.2,0.1,0.3,0.3,0.5,0.5c0.1,0.2,0.1,0.5,0.1,0.8
		c0,0.3-0.1,0.6-0.2,0.9c-0.1,0.2-0.4,0.4-0.7,0.5c0.4,0.1,0.7,0.3,1,0.6s0.3,0.7,0.3,1.1c0,0.3-0.1,0.6-0.2,0.9
		c-0.1,0.3-0.3,0.5-0.5,0.6c-0.2,0.1-0.5,0.3-0.7,0.3s-0.6,0.1-0.9,0.1h-3.3v-6.8H110.2z M110,37.2c0.3,0,0.5-0.1,0.7-0.2
		c0.2-0.1,0.3-0.3,0.3-0.6c0-0.1,0-0.3-0.1-0.4c-0.1-0.1-0.1-0.2-0.2-0.3c-0.1-0.1-0.2-0.1-0.3-0.1c-0.1,0-0.3,0-0.4,0h-1.4v1.6
		L110,37.2L110,37.2z M110.1,40.1c0.1,0,0.3,0,0.4-0.1c0.1,0,0.3-0.1,0.3-0.1c0.1-0.1,0.2-0.1,0.3-0.3c0.1-0.1,0.1-0.3,0.1-0.4
		c0-0.3-0.1-0.6-0.3-0.7c-0.2-0.1-0.5-0.2-0.7-0.2h-1.6v1.8L110.1,40.1L110.1,40.1z"/>
	<path class="st3" d="M115.4,42.7c-0.3,0.2-0.6,0.3-1.1,0.3c-0.1,0-0.3,0-0.4,0s-0.3,0-0.4,0v-1.1c0.1,0,0.3,0,0.4,0.1
		c0.1,0,0.3,0,0.4,0c0.2,0,0.3-0.1,0.4-0.2s0.1-0.3,0.1-0.4c0-0.1,0-0.2-0.1-0.3l-1.7-4.6h1.4l1.1,3.4l0,0l1.1-3.4h1.4l-2,5.5
		C115.9,42.3,115.7,42.6,115.4,42.7z"/>
</g>
<g class="st2">
	<path class="st3" d="M122.8,41.3l-2.2-6.8h1.6l1.5,4.8l0,0l1.6-4.8h1.6l-2.2,6.8H122.8z"/>
	<path class="st3" d="M128.1,40.1c0.2,0.2,0.5,0.3,0.9,0.3c0.3,0,0.5-0.1,0.7-0.2c0.2-0.1,0.3-0.3,0.3-0.4h1.2
		c-0.2,0.6-0.5,1-0.9,1.3s-0.9,0.4-1.4,0.4c-0.4,0-0.7-0.1-1-0.2c-0.3-0.1-0.5-0.3-0.8-0.5s-0.4-0.5-0.5-0.8c-0.1-0.3-0.2-0.7-0.2-1
		c0-0.3,0.1-0.7,0.2-1c0.1-0.3,0.3-0.6,0.5-0.8c0.2-0.2,0.5-0.4,0.8-0.5c0.3-0.1,0.7-0.2,1-0.2c0.4,0,0.8,0.1,1.1,0.3
		c0.3,0.2,0.5,0.4,0.7,0.7c0.2,0.3,0.3,0.6,0.4,1c0.1,0.3,0.1,0.7,0.1,1.1h-3.5C127.8,39.6,127.9,39.9,128.1,40.1z M129.6,37.5
		c-0.1-0.2-0.4-0.3-0.7-0.3c-0.2,0-0.4,0.1-0.5,0.1c-0.1,0.1-0.3,0.1-0.3,0.3c-0.1,0.1-0.1,0.2-0.2,0.3s-0.1,0.2-0.1,0.3h2.2
		C129.9,38,129.8,37.7,129.6,37.5z"/>
	<path class="st3" d="M133.4,36.3V37l0,0c0.2-0.3,0.4-0.5,0.7-0.6c0.3-0.1,0.5-0.2,0.8-0.2c0.3,0,0.7,0.1,0.9,0.1
		c0.2,0.1,0.4,0.2,0.5,0.4c0.1,0.2,0.2,0.4,0.3,0.6c0.1,0.3,0.1,0.5,0.1,0.8v3.1h-1.4v-2.8c0-0.4-0.1-0.7-0.2-0.9
		c-0.1-0.2-0.3-0.3-0.7-0.3s-0.6,0.1-0.8,0.3c-0.1,0.2-0.3,0.6-0.3,1.1v2.6H132v-4.9L133.4,36.3L133.4,36.3z"/>
	<path class="st3" d="M140.5,36.3v0.9h-1v2.5c0,0.2,0.1,0.4,0.1,0.5c0.1,0.1,0.2,0.1,0.5,0.1c0.1,0,0.1,0,0.2,0s0.1,0,0.2,0v1
		c-0.1,0-0.3,0-0.4,0.1c-0.1,0-0.3,0-0.4,0c-0.2,0-0.4,0-0.6-0.1c-0.2-0.1-0.3-0.1-0.5-0.1c-0.1-0.1-0.3-0.2-0.3-0.3
		c-0.1-0.1-0.1-0.3-0.1-0.6v-2.9h-0.8v-0.9h0.8v-1.5h1.4v1.5L140.5,36.3L140.5,36.3z"/>
	<path class="st3" d="M142.4,36.3v0.9l0,0c0.1-0.1,0.1-0.3,0.3-0.4c0.1-0.1,0.2-0.3,0.3-0.3c0.1-0.1,0.3-0.1,0.5-0.2
		c0.1-0.1,0.3-0.1,0.5-0.1c0.1,0,0.2,0,0.3,0.1v1.2c-0.1,0-0.1,0-0.2,0s-0.2,0-0.3,0c-0.3,0-0.5,0.1-0.6,0.1
		c-0.2,0.1-0.3,0.2-0.4,0.3c-0.1,0.1-0.2,0.3-0.2,0.5s-0.1,0.4-0.1,0.6v2.2h-1.4v-4.9L142.4,36.3L142.4,36.3z"/>
	<path class="st3" d="M144.8,37.9c0-0.3,0.1-0.6,0.2-0.8c0.1-0.2,0.3-0.4,0.5-0.5c0.2-0.1,0.5-0.2,0.7-0.3c0.3-0.1,0.5-0.1,0.8-0.1
		s0.5,0,0.7,0.1c0.3,0.1,0.5,0.1,0.7,0.2c0.2,0.1,0.4,0.3,0.5,0.4c0.1,0.2,0.2,0.4,0.2,0.7v2.6c0,0.2,0,0.4,0.1,0.6
		c0.1,0.2,0.1,0.3,0.1,0.5h-1.4c0-0.1-0.1-0.1-0.1-0.2s0-0.1,0-0.3c-0.2,0.2-0.5,0.4-0.7,0.5c-0.3,0.1-0.6,0.1-0.9,0.1
		c-0.2,0-0.5,0-0.7-0.1c-0.2-0.1-0.4-0.1-0.5-0.3c-0.1-0.1-0.3-0.3-0.3-0.5c-0.1-0.2-0.1-0.4-0.1-0.7s0.1-0.5,0.1-0.7
		c0.1-0.2,0.2-0.3,0.4-0.4c0.1-0.1,0.3-0.2,0.5-0.3c0.2-0.1,0.4-0.1,0.6-0.1c0.2-0.1,0.4-0.1,0.6-0.1c0.2,0,0.3-0.1,0.5-0.1
		c0.1-0.1,0.3-0.1,0.3-0.1c0.1-0.1,0.1-0.2,0.1-0.3c0-0.1,0-0.3-0.1-0.3s-0.1-0.1-0.2-0.2s-0.2-0.1-0.3-0.1c-0.1,0-0.2,0-0.3,0
		c-0.3,0-0.5,0.1-0.6,0.2c-0.1,0.1-0.3,0.3-0.3,0.5h-1.5V37.9z M147.9,38.8c-0.1,0.1-0.1,0.1-0.2,0.1c-0.1,0.1-0.2,0.1-0.3,0.1
		s-0.2,0.1-0.3,0.1c-0.1,0-0.2,0-0.3,0.1c-0.1,0-0.2,0.1-0.3,0.1c-0.1,0-0.2,0.1-0.3,0.1c-0.1,0.1-0.1,0.1-0.2,0.2
		c-0.1,0.1-0.1,0.2-0.1,0.3c0,0.1,0,0.2,0.1,0.3c0.1,0.1,0.1,0.1,0.2,0.2s0.1,0.1,0.3,0.1c0.1,0,0.2,0,0.3,0c0.3,0,0.5-0.1,0.6-0.1
		c0.1-0.1,0.3-0.2,0.3-0.3s0.1-0.3,0.1-0.4c0-0.1,0-0.2,0-0.3V38.8z"/>
	<path class="st3" d="M154.8,36.3c-0.1-0.1-0.2-0.3-0.3-0.4c-0.1-0.1-0.3-0.2-0.5-0.3c-0.2-0.1-0.3-0.1-0.5-0.1
		c-0.3,0-0.6,0.1-0.9,0.2c-0.2,0.1-0.4,0.3-0.5,0.5c-0.1,0.3-0.3,0.5-0.3,0.7c-0.1,0.3-0.1,0.5-0.1,0.9c0,0.3,0,0.5,0.1,0.8
		s0.2,0.5,0.3,0.7c0.1,0.2,0.3,0.4,0.5,0.5c0.2,0.1,0.5,0.2,0.9,0.2c0.5,0,0.8-0.1,1.1-0.4c0.3-0.3,0.4-0.7,0.5-1.1h1.4
		c-0.1,0.4-0.1,0.8-0.3,1.2c-0.1,0.3-0.3,0.6-0.6,0.9s-0.5,0.4-0.9,0.5c-0.3,0.1-0.7,0.2-1.2,0.2c-0.5,0-1-0.1-1.4-0.3
		c-0.4-0.2-0.7-0.4-1-0.7c-0.3-0.3-0.5-0.7-0.7-1.1c-0.1-0.4-0.2-0.9-0.2-1.4s0.1-1,0.2-1.4c0.1-0.4,0.3-0.8,0.7-1.2
		c0.3-0.3,0.6-0.5,1-0.7c0.4-0.2,0.9-0.3,1.4-0.3c0.4,0,0.7,0.1,1.1,0.1c0.3,0.1,0.6,0.3,0.9,0.5c0.3,0.2,0.5,0.5,0.7,0.7
		c0.2,0.3,0.3,0.7,0.3,1h-1.4C155,36.6,154.9,36.5,154.8,36.3z"/>
	<path class="st3" d="M158.8,34.5v6.8h-1.4v-6.8H158.8z"/>
	<path class="st3" d="M159.9,37.8c0.1-0.3,0.3-0.6,0.5-0.8c0.2-0.2,0.5-0.4,0.8-0.5c0.3-0.1,0.7-0.2,1-0.2c0.3,0,0.7,0.1,1,0.2
		c0.3,0.1,0.6,0.3,0.8,0.5c0.2,0.2,0.4,0.5,0.5,0.8c0.1,0.3,0.2,0.7,0.2,1.1c0,0.4-0.1,0.7-0.2,1.1c-0.1,0.3-0.3,0.6-0.5,0.8
		c-0.2,0.2-0.5,0.4-0.8,0.5c-0.3,0.1-0.7,0.2-1,0.2c-0.3,0-0.7-0.1-1-0.2c-0.3-0.1-0.5-0.3-0.8-0.5c-0.2-0.2-0.4-0.5-0.5-0.8
		c-0.1-0.3-0.2-0.7-0.2-1.1C159.7,38.4,159.7,38.1,159.9,37.8z M161.1,39.4c0.1,0.2,0.1,0.3,0.2,0.5c0.1,0.1,0.2,0.3,0.3,0.3
		c0.1,0.1,0.3,0.1,0.5,0.1c0.2,0,0.4-0.1,0.5-0.1c0.1-0.1,0.3-0.2,0.3-0.3c0.1-0.1,0.1-0.3,0.2-0.5c0.1-0.1,0.1-0.4,0.1-0.5
		c0-0.2,0-0.4-0.1-0.6s-0.1-0.3-0.2-0.5s-0.2-0.3-0.3-0.3c-0.1-0.1-0.3-0.1-0.5-0.1c-0.2,0-0.4,0.1-0.5,0.1
		c-0.1,0.1-0.3,0.2-0.3,0.3s-0.1,0.3-0.2,0.5c-0.1,0.2-0.1,0.4-0.1,0.6C161,39,161,39.2,161.1,39.4z"/>
	<path class="st3" d="M169,41.3v-0.7l0,0c-0.2,0.3-0.4,0.5-0.7,0.6c-0.3,0.1-0.5,0.2-0.8,0.2c-0.3,0-0.7-0.1-0.9-0.1
		c-0.2-0.1-0.4-0.2-0.5-0.4c-0.1-0.2-0.2-0.4-0.3-0.6c-0.1-0.3-0.1-0.5-0.1-0.8v-3.1h1.4v2.8c0,0.4,0.1,0.7,0.2,0.9
		c0.1,0.2,0.3,0.3,0.7,0.3s0.6-0.1,0.8-0.3c0.1-0.2,0.3-0.6,0.3-1.1v-2.6h1.4v4.9L169,41.3L169,41.3z"/>
	<path class="st3" d="M174.8,40.7c-0.1,0.3-0.3,0.5-0.6,0.5c-0.3,0.1-0.5,0.2-0.9,0.2s-0.7-0.1-1-0.2c-0.3-0.1-0.5-0.3-0.7-0.6
		c-0.2-0.3-0.3-0.5-0.4-0.8c-0.1-0.3-0.1-0.7-0.1-1c0-0.3,0.1-0.7,0.1-1c0.1-0.3,0.2-0.6,0.4-0.8c0.2-0.2,0.4-0.4,0.7-0.5
		c0.3-0.1,0.6-0.2,1-0.2c0.3,0,0.5,0.1,0.8,0.2c0.3,0.1,0.5,0.3,0.6,0.5l0,0v-2.5h1.4v6.8h-1.3V40.7L174.8,40.7z M174.8,38.2
		c-0.1-0.2-0.1-0.3-0.2-0.5c-0.1-0.1-0.2-0.3-0.3-0.3c-0.1-0.1-0.3-0.1-0.5-0.1c-0.2,0-0.4,0.1-0.5,0.1c-0.1,0.1-0.3,0.2-0.3,0.3
		s-0.1,0.3-0.2,0.5c-0.1,0.2-0.1,0.4-0.1,0.6c0,0.2,0,0.4,0.1,0.5c0.1,0.1,0.1,0.3,0.2,0.5c0.1,0.1,0.2,0.3,0.3,0.3s0.3,0.1,0.5,0.1
		c0.2,0,0.4-0.1,0.5-0.1c0.1-0.1,0.3-0.2,0.3-0.3c0.1-0.1,0.1-0.3,0.2-0.5c0.1-0.2,0.1-0.4,0.1-0.6S174.8,38.4,174.8,38.2z"/>
</g>
</svg>
