<?xml version="1.0" encoding="utf-8"?>
<!-- Generator: Adobe Illustrator 21.0.0, SVG Export Plug-In . SVG Version: 6.00 Build 0)  -->
<svg version="1.1" id="Layer_1" xmlns="http://www.w3.org/2000/svg" xmlns:xlink="http://www.w3.org/1999/xlink" x="0px" y="0px"
	 viewBox="0 0 30 30" style="enable-background:new 0 0 30 30;" xml:space="preserve">
<style type="text/css">
	.st0{fill:#FFFFFF;}
</style>
<g transform="translate(-24 -136.342)">
	<path class="st0" d="M42.1,151.2h1v2.1h2.7l-2.8-5c-0.2,0.2-0.5,0.4-0.7,0.6c-1.2,1.2-1.8,2.7-1.8,4.4h1.6V151.2z"/>
	<path class="st0" d="M47.7,151.2l-0.9-1.2l-0.9,1.2l0.9,1.6L47.7,151.2z"/>
	<path class="st0" d="M45.5,147.2l1.2,1.2l1.2-1.2c-0.4-0.1-0.8-0.1-1.2-0.1C46.3,147.1,45.9,147.2,45.5,147.2z"/>
	<path class="st0" d="M43.9,147.8l1.4,2.4l0.8-1l-1.6-1.6C44.2,147.6,44.1,147.7,43.9,147.8z"/>
	<path class="st0" d="M49.6,147.8c-0.2-0.1-0.3-0.2-0.5-0.2l-1.6,1.6l0.8,1L49.6,147.8z"/>
	<circle class="st0" cx="46.4" cy="143" r="2.9"/>
	<path class="st0" d="M50.4,153.3v-2.1h1v2.1h1.6c0-1.9-0.9-3.8-2.5-4.9l-2.8,4.9H50.4z"/>
	<path class="st0" d="M35.3,160.6l1.1,0.6l1.7-1.7l-0.6-1.1l0.1-0.2c0.2-0.4,0.4-0.9,0.6-1.4l0.1-0.3l1.2-0.4v-2.4l-1.2-0.4
		l-0.1-0.3c-0.1-0.5-0.3-1-0.6-1.4l-0.1-0.2l0.6-1.2l-1.7-1.7l-1.1,0.6L35,149c-0.4-0.2-0.9-0.4-1.4-0.6l-0.3-0.1l-0.4-1.2h-2.4
		l-0.4,1.2l-0.3,0.1c-0.5,0.1-1,0.3-1.4,0.6l-0.2,0.1l-1.1-0.6l-1.7,1.7l0.6,1.1l-0.1,0.2c-0.2,0.4-0.4,0.9-0.6,1.4l-0.1,0.3
		l-1.2,0.4v2.4l1.2,0.4l0.1,0.3c0.1,0.5,0.3,1,0.6,1.4l0.1,0.2l-0.6,1.1l1.7,1.7l1.1-0.6l0.2,0.1c0.4,0.2,0.9,0.4,1.4,0.6l0.3,0.1
		l0.4,1.2h2.4l0.4-1.2l0.3-0.1c0.5-0.1,1-0.3,1.4-0.6L35.3,160.6z M31.8,160.5c-3.1,0-5.7-2.5-5.7-5.7c0-3.1,2.5-5.7,5.7-5.7
		s5.7,2.5,5.7,5.7C37.4,158,34.9,160.5,31.8,160.5L31.8,160.5z"/>
	<path class="st0" d="M31.8,150.2c-2.6,0-4.7,2.1-4.7,4.7c0,2.6,2.1,4.7,4.7,4.7c2.6,0,4.7-2.1,4.7-4.7l0,0
		C36.4,152.3,34.3,150.2,31.8,150.2z M29.2,155.4h-1v-1h1L29.2,155.4z M31.8,154.3c0.9,0,1.6,0.7,1.6,1.6l0,0v1.6h-1v1h-1v-1.1
		c-0.6-0.2-1-0.8-1-1.5h1c0,0.3,0.2,0.5,0.5,0.5h0.5v-0.5c0-0.3-0.2-0.5-0.5-0.5c-0.9,0-1.6-0.7-1.6-1.6l0,0v-1.6h1v-1h1v1.1
		c0.6,0.2,1,0.8,1,1.5h-1c0-0.3-0.2-0.5-0.5-0.5h-0.5v0.5C31.3,154.1,31.5,154.3,31.8,154.3C31.8,154.3,31.8,154.3,31.8,154.3z
		 M34.4,155.4v-1h1v1H34.4z"/>
	<path class="st0" d="M40.5,156.8l-1.4,0.5c-0.1,0.4-0.3,0.8-0.5,1.1l0.7,1.3l-2.7,2.7l-1.3-0.7c-0.4,0.2-0.7,0.3-1.1,0.5l-0.1,0.4
		h18.9v-6.2H40.5V156.8z M50.9,160.5h1v1h-1V160.5z M48.8,160.5h1v1h-1V160.5z M46.7,160.5h1v1h-1V160.5z"/>
	<path class="st0" d="M40.5,154.3H54v1H40.5V154.3z"/>
</g>
</svg>
