<svg xmlns="http://www.w3.org/2000/svg" width="91" height="70" viewBox="0 0 91 70"><g transform="translate(-1767 -135)"><g transform="translate(1764 111)"><path d="M338.552,196.828V207.69h-4.828v28.966h-7.241l-1.207-13.276-1.207,13.276h-7.241V207.69H312V196.828A4.828,4.828,0,0,1,316.828,192h16.9a4.831,4.831,0,0,1,4.653,3.533,4.883,4.883,0,0,1,.175,1.294Z" transform="translate(-244.552 -142.655)" fill="#4d5e78"/><path d="M365.724,216.714v10.862H360.9v28.966h-7.241l-1.207-13.276-1.207,13.276H344V236.867a69.319,69.319,0,0,0,21.549-21.447A4.882,4.882,0,0,1,365.724,216.714Z" transform="translate(-271.724 -162.542)" fill="#485870"/><path d="M376,192l3.621,6.034L383.241,192Z" transform="translate(-298.897 -142.655)" fill="#e0e0de"/><g transform="translate(71.069 55.379)"><path d="M392,232h2.414v20.517H392Z" transform="translate(-383.552 -232)" fill="#404f66"/><path d="M424,248h4.828v2.414H424Z" transform="translate(-410.724 -245.586)" fill="#404f66"/><path d="M344,248h4.828v2.414H344Z" transform="translate(-342.793 -245.586)" fill="#404f66"/><path d="M336,232h2.414v13.276H336Z" transform="translate(-336 -232)" fill="#404f66"/><path d="M448,232h2.414v13.276H448Z" transform="translate(-431.103 -232)" fill="#404f66"/></g><path d="M352.6,76.517a8.448,8.448,0,0,1-8.448-8.448V59.621A3.621,3.621,0,0,1,347.768,56h9.655a3.621,3.621,0,0,1,3.621,3.621v8.448a8.448,8.448,0,0,1-8.448,8.448Z" transform="translate(-271.849 -27.172)" fill="#fec9a3"/><path d="M360.9,33.655H344V28.828A4.828,4.828,0,0,1,348.828,24h7.241a4.828,4.828,0,0,1,4.828,4.828Z" transform="translate(-271.724 0)" fill="#404f66"/><path d="M352.9,84.828h-.772a13.331,13.331,0,0,1-3.235-.4,13.339,13.339,0,0,0-6.469,0,13.329,13.329,0,0,1-3.235.4h-.772a2.414,2.414,0,0,1,0-4.828H352.9a2.414,2.414,0,0,1,0,4.828Z" transform="translate(-264.931 -47.552)" fill="#4d5e78"/><path d="M379.621,147.621A3.625,3.625,0,0,1,376,144h2.414a1.207,1.207,0,1,0,2.414,0h2.414A3.625,3.625,0,0,1,379.621,147.621Z" transform="translate(-298.897 -101.897)" fill="#f7ad7c"/><path d="M368,112h2.414v2.414H368Z" transform="translate(-292.103 -74.724)" fill="#92563a"/><path d="M416,112h2.414v2.414H416Z" transform="translate(-332.862 -74.724)" fill="#92563a"/><path d="M344,368h16.9v2.414H344Z" transform="translate(-271.724 -292.103)" fill="#404f66"/><path d="M386.862,256,376,262.034h16.9v-3.621Z" transform="translate(-298.897 -197)" fill="#feb784"/><path d="M321.655,282.414,318.034,280,312,282.414v6.034h22.931a3.621,3.621,0,0,0,3.621-3.621v-2.414Z" transform="translate(-244.552 -217.379)" fill="#fec9a3"/><path d="M24,240h6.034v13.276H27.621A3.621,3.621,0,0,1,24,249.655Z" transform="translate(0 -183.414)" fill="#fec093"/><path d="M50.259,24A10.259,10.259,0,0,1,60.517,34.259V52.966H40V34.259A10.259,10.259,0,0,1,50.259,24Z" transform="translate(-13.586 0)" fill="#92563a"/><path d="M59.768,56h9.655a3.621,3.621,0,0,1,3.621,3.621v7.241a8.448,8.448,0,1,1-16.9,0V59.621A3.621,3.621,0,0,1,59.768,56Z" transform="translate(-27.297 -27.172)" fill="#fec9a3"/><path d="M40,38.483l1.987-.248a19.024,19.024,0,0,0,12.5-6.993l4.828,6.034,1.207-2.414V33.655A9.655,9.655,0,0,0,50.862,24H49.295A9.295,9.295,0,0,0,40,33.295Z" transform="translate(-13.586 0)" fill="#92563a"/><path d="M64,440h7.241v7.241H64Z" transform="translate(-33.966 -353.241)" fill="#fec9a3"/><path d="M112,440h7.241v7.241H112Z" transform="translate(-74.724 -353.241)" fill="#fec9a3"/><path d="M52.217,224l-.561.561a5.234,5.234,0,0,0,.561,7.888v2.414H66.7v-2.414a5.234,5.234,0,0,0,.561-7.888L66.7,224Z" transform="translate(-22.182 -169.828)" fill="#f59898"/><path d="M50.552,188.828v3.621H44.517V200.9H30.034v-8.448H24v-3.621A4.828,4.828,0,0,1,28.828,184h16.9a4.828,4.828,0,0,1,4.828,4.827Z" transform="translate(0 -135.862)" fill="#f59898"/><path d="M61.724,317.724H40l3.158-18.947L43.621,296H58.1Z" transform="translate(-13.586 -230.966)" fill="#f59898"/><path d="M61.724,317.724H40l3.158-18.947q2.017-1.308,3.971-2.777H58.1Z" transform="translate(-13.586 -230.966)" fill="#ed9191"/><path d="M104.26,194.984V198.6H98.225v8.448H87.25a68.96,68.96,0,0,0,15.242-15.8,4.816,4.816,0,0,1,1.768,3.734Z" transform="translate(-53.708 -142.018)" fill="#ed9191"/><path d="M164.828,262.931h-3.621A1.207,1.207,0,0,1,160,261.724V240h6.034v21.724A1.207,1.207,0,0,1,164.828,262.931Z" transform="translate(-115.483 -183.414)" fill="#fec9a3"/><path d="M80,184l4.828,9.655L89.655,184Z" transform="translate(-47.552 -135.862)" fill="#fec9a3"/><path d="M91.768,139.621A3.625,3.625,0,0,1,88.147,136h2.414a1.207,1.207,0,0,0,2.414,0h2.414A3.625,3.625,0,0,1,91.768,139.621Z" transform="translate(-54.47 -95.103)" fill="#f7ad7c"/><path d="M80.147,104h2.414v2.414H80.147Z" transform="translate(-47.677 -67.931)" fill="#92563a"/><path d="M128.147,104h2.414v2.414h-2.414Z" transform="translate(-88.435 -67.931)" fill="#92563a"/><path d="M64,240H79.69v19.31H64Z" transform="translate(-33.966 -183.414)" fill="#ffb531"/><path d="M45.724,281.655h-18.1A3.621,3.621,0,0,1,24,278.035v-2.414H37.276L40.9,272l2.414,1.207L42.1,275.621h3.621Z" transform="translate(0 -210.586)" fill="#fec9a3"/><path d="M203.621,48h9.655a3.621,3.621,0,0,1,3.621,3.621v8.448a8.448,8.448,0,0,1-16.9,0V51.621A3.621,3.621,0,0,1,203.621,48Z" transform="translate(-149.448 -20.379)" fill="#fec9a3"/><path d="M209.984,36.069l-3.621-6.034-1.757.586a15.205,15.205,0,0,1-10.8-.45A3.215,3.215,0,0,1,195.074,24h10.082a4.828,4.828,0,0,1,4.828,4.828Z" transform="translate(-142.535 0)" fill="#f98500"/><path d="M194.552,188.828V199.69h-4.828v10.862h-16.9V199.69H168V188.828A4.828,4.828,0,0,1,172.828,184h16.9a4.821,4.821,0,0,1,4.828,4.828Z" transform="translate(-122.276 -135.862)" fill="#cfcfcd"/><path d="M221.724,206.422v10.862H216.9v10.862H200v-6.007a70.19,70.19,0,0,0,21.416-17.419A4.824,4.824,0,0,1,221.724,206.422Z" transform="translate(-149.448 -153.456)" fill="#c7c7c5"/><path d="M235.621,131.621A3.625,3.625,0,0,1,232,128h2.414a1.207,1.207,0,1,0,2.414,0h2.414A3.625,3.625,0,0,1,235.621,131.621Z" transform="translate(-176.621 -88.31)" fill="#f7ad7c"/><path d="M224,96h2.414v2.414H224Z" transform="translate(-169.828 -61.138)" fill="#92563a"/><path d="M272,96h2.414v2.414H272Z" transform="translate(-210.586 -61.138)" fill="#92563a"/><path d="M192,224h2.414v13.276H192Z" transform="translate(-142.655 -169.828)" fill="#b0b0ae"/><path d="M304,224h2.414v13.276H304Z" transform="translate(-237.759 -169.828)" fill="#b0b0ae"/><path d="M240,184l1.207,3.621L240,203.31l2.414,2.414,2.414-2.414-1.207-15.69L244.828,184Z" transform="translate(-183.414 -135.862)" fill="#348fd9"/><path d="M216.9,379.31h-7.241l-1.207-14.483-1.207,14.483H200V360h16.9Z" transform="translate(-149.448 -285.31)" fill="#4d5e78"/><path d="M216,260.828l12.8,5.818a2.414,2.414,0,0,0,1,.216h3.1a2.414,2.414,0,0,0,2.414-2.414v-3.621L218.414,256Z" transform="translate(-163.034 -197)" fill="#dbdbd9"/><path d="M175.241,254.034H168V248h6.034l3.621,1.207Z" transform="translate(-122.276 -190.207)" fill="#fec9a3"/><path d="M187.31,260.828l-12.8,5.818a2.414,2.414,0,0,1-1,.216h-3.1A2.414,2.414,0,0,1,168,264.448v-3.621L184.9,256Z" transform="translate(-122.276 -197)" fill="#e0e0de"/><path d="M282.414,254.034h7.241V248h-6.034L280,249.207Z" transform="translate(-217.379 -190.207)" fill="#fec9a3"/><path d="M64,440H78.483v2.414H64Z" transform="translate(-33.966 -353.241)" fill="#fec093"/><path d="M104,440h2.414v7.241H104Z" transform="translate(-67.931 -353.241)" fill="#feb784"/><path d="M200,360h16.9v2.414H200Z" transform="translate(-149.448 -285.31)" fill="#485870"/></g><g transform="translate(1767 151)" fill="#22b43d" stroke="#fff" stroke-width="3"><circle cx="15" cy="15" r="15" stroke="none"/><circle cx="15" cy="15" r="13.5" fill="none"/></g><g transform="translate(1774.37 154.645)"><g transform="translate(0 5.814)"><path d="M6.772,16.459a1.738,1.738,0,0,1-2.457,0L.509,12.653A1.737,1.737,0,0,1,2.966,10.2l2.268,2.268a.44.44,0,0,0,.621,0L12,6.323a1.737,1.737,0,1,1,2.457,2.457Z" transform="translate(0 -5.814)" fill="#fff"/></g></g></g></svg>