<?xml version="1.0" encoding="utf-8"?>
<!-- Generator: Adobe Illustrator 21.0.0, SVG Export Plug-In . SVG Version: 6.00 Build 0)  -->
<svg version="1.1" id="Layer_1" xmlns="http://www.w3.org/2000/svg" xmlns:xlink="http://www.w3.org/1999/xlink" x="0px" y="0px"
	 viewBox="0 0 30 30" style="enable-background:new 0 0 30 30;" xml:space="preserve">
<style type="text/css">
	.st0{fill:#FFFFFF;}
</style>
<g transform="translate(-36.873)">
	<path class="st0" d="M52.6,5.5c0.4,0.4,1,0.7,1.7,0.7l3.3,0l-5.7-5.6l0,3.3C51.9,4.5,52.2,5.1,52.6,5.5z"/>
	<path class="st0" d="M52.9,26.6L51.8,30l3.4-1.1l-1.1-1.1L52.9,26.6z"/>
	<path class="st0" d="M40.1,24.5c0.4,0.4,1,0.7,1.7,0.7l11.1-0.1l5.4-5.4L58.2,7l-3.8,0h0c-1.7,0-3.2-1.4-3.2-3.2l0-3.8l-9.4,0
		c-1.3,0-2.4,1.1-2.4,2.4c0,0,0,0,0,0l0.1,20.4C39.4,23.4,39.7,24,40.1,24.5z M49.7,15.1h-1.4c-0.2,0-0.4-0.2-0.4-0.4
		c0-0.2,0.2-0.4,0.4-0.4h1.4c0.2,0,0.4,0.2,0.4,0.4C50.2,14.9,50,15.1,49.7,15.1z M43,10.8h11.5c0.2,0,0.4,0.2,0.4,0.4
		c0,0.2-0.2,0.4-0.4,0.4H43c-0.2,0-0.4-0.2-0.4-0.4C42.6,11,42.8,10.8,43,10.8L43,10.8z M43,14.3h3.6c0.2,0,0.4,0.2,0.4,0.4
		s-0.2,0.4-0.4,0.4c0,0,0,0,0,0H43c-0.2,0-0.4-0.2-0.4-0.4C42.6,14.4,42.8,14.3,43,14.3L43,14.3z"/>
	<path class="st0" d="M54.6,27.1l1.3,1.3l6.7-6.7L60,19.1l-6.7,6.7L54.6,27.1z"/>
	<path class="st0" d="M60.6,18.5l1.2-1.2l2.6,2.6l-1.2,1.2L60.6,18.5z"/>
</g>
</svg>
