<?xml version="1.0" encoding="utf-8"?>
<!-- Generator: Adobe Illustrator 21.0.0, SVG Export Plug-In . SVG Version: 6.00 Build 0)  -->
<svg version="1.1" id="Layer_1" xmlns="http://www.w3.org/2000/svg" xmlns:xlink="http://www.w3.org/1999/xlink" x="0px" y="0px"
	 viewBox="0 0 30 30" style="enable-background:new 0 0 30 30;" xml:space="preserve">
<style type="text/css">
	.st0{fill:#FFFFFF;}
</style>
<path class="st0" d="M9.5,9.5C10,9,10,8.2,9.5,7.7C9,7.2,8.2,7.2,7.7,7.7l-6.4,6.4c-0.5,0.5-0.5,1.3,0,1.8c0,0,0,0,0,0l6.4,6.4
	c0.5,0.5,1.3,0.5,1.8,0c0.5-0.5,0.5-1.3,0-1.8l-4.2-4.2h19.3l-4.2,4.2c-0.5,0.5-0.5,1.3,0,1.8c0.5,0.5,1.3,0.5,1.8,0l0,0l6.4-6.4
	c0.5-0.5,0.5-1.3,0-1.8c0,0,0,0,0,0l-6.4-6.4c-0.5-0.5-1.3-0.5-1.8,0C20,8.2,20,9,20.5,9.5l4.2,4.2H5.4L9.5,9.5z"/>
</svg>
