<?xml version="1.0" encoding="utf-8"?>
<!-- Generator: Adobe Illustrator 21.0.0, SVG Export Plug-In . SVG Version: 6.00 Build 0)  -->
<svg version="1.1" id="Layer_1" xmlns:svgjs="http://svgjs.com/svgjs"
	 xmlns="http://www.w3.org/2000/svg" xmlns:xlink="http://www.w3.org/1999/xlink" x="0px" y="0px" viewBox="0 0 512 512"
	 style="enable-background:new 0 0 512 512;" xml:space="preserve">
<style type="text/css">
	.st0{fill:#FFFFFF;}
</style>
<g>
	<path class="st0" d="M288.9,504h-65.9c-10.7,0-19.4-8.7-19.4-19.4v-28.9c-18.2-4.8-35.6-12-51.9-21.5l-20.5,20.5
		c-7.6,7.6-19.8,7.6-27.4,0l-46.6-46.6c-7.6-7.6-7.6-19.8,0-27.4l20.5-20.5c-9.5-16.3-16.8-33.7-21.5-51.9H27.4
		c-10.7,0-19.4-8.7-19.4-19.4v-65.9c0-10.7,8.7-19.4,19.4-19.4h28.9c4.7-18.3,12-35.7,21.5-52l-20.4-20.4c-7.6-7.6-7.6-19.8,0-27.4
		l46.6-46.6c7.6-7.6,19.8-7.6,27.4,0l20.3,20.3c16.3-9.6,33.8-16.8,52-21.6V27.4c0-10.7,8.7-19.4,19.4-19.4h65.9
		c10.7,0,19.4,8.7,19.4,19.4V56c18.3,4.8,35.8,12,52.1,21.6l20.2-20.2c7.6-7.6,19.8-7.6,27.4,0l46.6,46.6c7.6,7.6,7.6,19.8,0,27.4
		l-20.2,20.2c9.6,16.3,16.8,33.8,21.6,52.1h28.6c10.7,0,19.4,8.7,19.4,19.4v65.9c0,10.7-8.7,19.4-19.4,19.4h-28.7
		c-4.8,18.3-12,35.7-21.6,52l20.3,20.3c7.6,7.6,7.6,19.8,0,27.4l-46.6,46.6c-7.6,7.6-19.8,7.6-27.4,0l-20.4-20.4
		c-16.3,9.5-33.7,16.7-52,21.5v28.9C308.3,495.3,299.6,504,288.9,504z M150.3,412.2c1.8,0,3.6,0.5,5.2,1.5
		c18.4,11.8,38.6,20.1,59.9,24.8c4.4,1,7.6,4.9,7.6,9.5v36.5h65.9v-36.5c0-4.5,3.2-8.5,7.6-9.5c21.4-4.7,41.5-13,60-24.8
		c3.8-2.4,8.8-1.9,12.1,1.3l25.8,25.8l46.6-46.6l-25.7-25.7c-3.2-3.2-3.8-8.2-1.3-12.1c11.8-18.5,20.2-38.7,24.9-60.1
		c1-4.4,4.9-7.6,9.5-7.6h36.3v-65.9h-36.2c-4.5,0-8.5-3.2-9.5-7.6c-4.7-21.4-13.1-41.6-24.9-60.1c-2.4-3.8-1.9-8.8,1.3-12.1
		l25.6-25.6L394.4,71l-25.6,25.6c-3.2,3.2-8.2,3.8-12.1,1.3c-18.5-11.8-38.7-20.2-60.1-24.9c-4.4-1-7.6-4.9-7.6-9.5V27.4h-65.9v36.3
		c0,4.5-3.2,8.5-7.6,9.5c-21.4,4.7-41.6,13.1-60.1,24.9c-3.8,2.5-8.9,1.9-12.1-1.3L117.6,71L71,117.6l25.8,25.8
		c3.2,3.2,3.8,8.2,1.3,12.1c-11.8,18.5-20.1,38.7-24.8,60c-1,4.4-4.9,7.6-9.5,7.6H27.4v65.9h36.5c4.5,0,8.5,3.2,9.5,7.6
		c4.7,21.3,13.1,41.5,24.8,59.9c2.4,3.8,1.9,8.9-1.3,12.1L71,394.4l46.6,46.6l25.9-25.9C145.4,413.2,147.8,412.2,150.3,412.2z"/>
	<path class="st0" d="M256,397.4c-36.2,0-72.4-13.8-100-41.4c-55.1-55.1-55.1-144.9,0-200c22.2-22.2,50.4-36.2,81.6-40.2
		c30.1-3.9,61.2,2,87.6,16.8c4.7,2.6,6.3,8.5,3.7,13.2c-2.6,4.7-8.5,6.3-13.2,3.7c-47.4-26.6-107.5-18.3-146,20.2
		c-47.6,47.6-47.6,125,0,172.6c23.8,23.8,55.1,35.7,86.3,35.7c31.3,0,62.5-11.9,86.3-35.7c37.2-37.2,46.4-93.8,22.9-140.9
		c-2.4-4.8-0.5-10.6,4.3-13c4.8-2.4,10.6-0.4,13,4.3c27.2,54.5,16.6,120.1-26.6,163.2C328.4,383.6,292.2,397.4,256,397.4z"/>
	<path class="st0" d="M351.3,174.6c-2.6,0-5-1-6.9-2.8c-1.8-1.8-2.8-4.3-2.8-6.8c0-2.6,1-5,2.8-6.8c1.8-1.8,4.3-2.8,6.9-2.8
		c2.5,0,5,1,6.8,2.8c1.8,1.8,2.8,4.3,2.8,6.8c0,2.6-1,5-2.8,6.8C356.3,173.6,353.8,174.6,351.3,174.6z"/>
	<path class="st0" d="M242.3,327.4c-2.6,0-5-1-6.8-2.8l-61.3-61.3c-3.8-3.8-3.8-9.9,0-13.7l34.7-34.8c1.8-1.8,4.3-2.8,6.8-2.8
		s5,1,6.9,2.8l19.7,19.7l47-47c3.8-3.8,9.9-3.8,13.7,0l34.8,34.8c3.8,3.8,3.8,9.9,0,13.7l-88.6,88.6
		C247.4,326.3,244.9,327.4,242.3,327.4z M194.8,256.4l47.6,47.6l74.9-74.9l-21-21l-47,47c-1.8,1.8-4.3,2.8-6.9,2.8s-5-1-6.8-2.8
		l-19.7-19.7L194.8,256.4z"/>
</g>
</svg>
