<?xml version="1.0" encoding="utf-8"?>
<!-- Generator: Adobe Illustrator 21.0.0, SVG Export Plug-In . SVG Version: 6.00 Build 0)  -->
<svg version="1.1" id="Layer_1" xmlns="http://www.w3.org/2000/svg" xmlns:xlink="http://www.w3.org/1999/xlink" x="0px" y="0px"
	 viewBox="0 0 30 30" style="enable-background:new 0 0 30 30;" xml:space="preserve">
<style type="text/css">
	.st0{fill:#FFFFFF;}
</style>
<path class="st0" d="M0.4,14.1h3.5v1.7H0.4V14.1z"/>
<path class="st0" d="M26.1,14.1h3.5v1.7h-3.5V14.1z"/>
<path class="st0" d="M22.2,6.6l2.4-2.4l1.2,1.2l-2.4,2.4L22.2,6.6z"/>
<path class="st0" d="M6.6,7.8L4.1,5.3l1.2-1.2l2.4,2.4L6.6,7.8z"/>
<path class="st0" d="M14.1,0.4h1.7v3.5h-1.7V0.4z"/>
<path class="st0" d="M7.3,26.2c-0.9,0-1.7,0.8-1.7,1.7l0,0v1.7h18.8v-1.7c0-0.9-0.8-1.7-1.7-1.7H7.3z"/>
<path class="st0" d="M7.3,15v9.4h15.4V15c0-4.2-3.4-7.7-7.7-7.7S7.3,10.8,7.3,15L7.3,15z M14.1,12.4h1.7v5.1h-1.7V12.4z M14.1,19.3
	h1.7V21h-1.7V19.3z"/>
</svg>
