<svg xmlns="http://www.w3.org/2000/svg" width="86.587" height="62" viewBox="0 0 86.587 62"><g transform="translate(-1395.413 -325)"><g transform="translate(1396 301)"><path d="M335.517,196.276V205.9h-4.276v25.655h-6.414l-1.069-11.759-1.069,11.759h-6.414V205.9H312v-9.621A4.276,4.276,0,0,1,316.276,192h14.966a4.279,4.279,0,0,1,4.121,3.129A4.326,4.326,0,0,1,335.517,196.276Z" transform="translate(-249.517 -145.552)" fill="#4d5e78"/><path d="M363.241,216.566v9.621h-4.276v25.655h-6.414l-1.069-11.759-1.069,11.759H344V234.415a61.4,61.4,0,0,0,19.086-19A4.324,4.324,0,0,1,363.241,216.566Z" transform="translate(-277.241 -165.842)" fill="#485870"/><path d="M376,192l3.207,5.345L382.414,192Z" transform="translate(-304.966 -145.552)" fill="#e0e0de"/><g transform="translate(65.69 51.793)"><path d="M392,232h2.138v18.172H392Z" transform="translate(-384.517 -232)" fill="#404f66"/><path d="M424,248h4.276v2.138H424Z" transform="translate(-412.241 -245.862)" fill="#404f66"/><path d="M344,248h4.276v2.138H344Z" transform="translate(-342.931 -245.862)" fill="#404f66"/><path d="M336,232h2.138v11.759H336Z" transform="translate(-336 -232)" fill="#404f66"/><path d="M448,232h2.138v11.759H448Z" transform="translate(-433.034 -232)" fill="#404f66"/></g><path d="M351.63,74.172a7.483,7.483,0,0,1-7.483-7.483V59.207A3.207,3.207,0,0,1,347.354,56h8.552a3.207,3.207,0,0,1,3.207,3.207V66.69a7.483,7.483,0,0,1-7.483,7.483Z" transform="translate(-277.369 -27.724)" fill="#fec9a3"/><path d="M358.966,32.552H344V28.276A4.276,4.276,0,0,1,348.276,24h6.414a4.276,4.276,0,0,1,4.276,4.276Z" transform="translate(-277.241 0)" fill="#404f66"/><path d="M350.966,84.276h-.684a11.808,11.808,0,0,1-2.865-.353,11.815,11.815,0,0,0-5.73,0,11.806,11.806,0,0,1-2.865.353h-.684a2.138,2.138,0,0,1,0-4.276h12.828a2.138,2.138,0,1,1,0,4.276Z" transform="translate(-270.31 -48.517)" fill="#4d5e78"/><path d="M379.207,147.207A3.211,3.211,0,0,1,376,144h2.138a1.069,1.069,0,1,0,2.138,0h2.138A3.211,3.211,0,0,1,379.207,147.207Z" transform="translate(-304.966 -103.966)" fill="#f7ad7c"/><path d="M368,112h2.138v2.138H368Z" transform="translate(-298.034 -76.241)" fill="#92563a"/><path d="M416,112h2.138v2.138H416Z" transform="translate(-339.621 -76.241)" fill="#92563a"/><path d="M344,368h14.966v2.138H344Z" transform="translate(-277.241 -298.034)" fill="#404f66"/><path d="M385.621,256,376,261.345h14.966v-3.207Z" transform="translate(-304.966 -201)" fill="#feb784"/><path d="M320.552,282.138,317.345,280,312,282.138v5.345h20.31a3.207,3.207,0,0,0,3.207-3.207v-2.138Z" transform="translate(-249.517 -221.793)" fill="#fec9a3"/><path d="M24,240h5.345v11.759H27.207A3.207,3.207,0,0,1,24,248.552Z" transform="translate(0 -187.138)" fill="#fec093"/><path d="M49.086,24a9.086,9.086,0,0,1,9.086,9.086V49.655H40V33.086A9.086,9.086,0,0,1,49.086,24Z" transform="translate(-13.862 0)" fill="#92563a"/><path d="M59.354,56h8.552a3.207,3.207,0,0,1,3.207,3.207v6.414a7.483,7.483,0,1,1-14.966,0V59.207A3.207,3.207,0,0,1,59.354,56Z" transform="translate(-27.851 -27.724)" fill="#fec9a3"/><path d="M40,36.828l1.76-.22a16.85,16.85,0,0,0,11.068-6.194L57.1,35.759l1.069-2.138V32.552A8.552,8.552,0,0,0,49.621,24H48.233A8.232,8.232,0,0,0,40,32.233Z" transform="translate(-13.862 0)" fill="#92563a"/><path d="M64,440h6.414v6.414H64Z" transform="translate(-34.655 -360.414)" fill="#fec9a3"/><path d="M112,440h6.414v6.414H112Z" transform="translate(-76.241 -360.414)" fill="#fec9a3"/><path d="M51.977,224l-.5.5a4.636,4.636,0,0,0,.5,6.986v2.138H64.805v-2.138a4.636,4.636,0,0,0,.5-6.986l-.5-.5Z" transform="translate(-22.633 -173.276)" fill="#f59898"/><path d="M47.517,188.276v3.207H42.172v7.483H29.345v-7.483H24v-3.207A4.276,4.276,0,0,1,28.276,184H43.241a4.277,4.277,0,0,1,4.276,4.275Z" transform="translate(0 -138.621)" fill="#f59898"/><path d="M59.241,315.241H40l2.8-16.781.41-2.46H56.034Z" transform="translate(-13.862 -235.655)" fill="#f59898"/><path d="M59.241,315.241H40l2.8-16.781q1.787-1.158,3.517-2.46h9.721Z" transform="translate(-13.862 -235.655)" fill="#ed9191"/><path d="M102.316,194.557v3.207H96.971v7.483H87.25a61.079,61.079,0,0,0,13.5-14A4.266,4.266,0,0,1,102.316,194.557Z" transform="translate(-54.798 -144.902)" fill="#ed9191"/><path d="M164.276,260.31h-3.207A1.069,1.069,0,0,1,160,259.241V240h5.345v19.241A1.069,1.069,0,0,1,164.276,260.31Z" transform="translate(-117.828 -187.138)" fill="#fec9a3"/><path d="M80,184l4.276,8.552L88.552,184Z" transform="translate(-48.517 -138.621)" fill="#fec9a3"/><path d="M91.354,139.207A3.211,3.211,0,0,1,88.147,136h2.138a1.069,1.069,0,0,0,2.138,0h2.138A3.21,3.21,0,0,1,91.354,139.207Z" transform="translate(-55.576 -97.034)" fill="#f7ad7c"/><path d="M80.147,104h2.138v2.138H80.147Z" transform="translate(-48.645 -69.31)" fill="#92563a"/><path d="M128.147,104h2.138v2.138h-2.138Z" transform="translate(-90.231 -69.31)" fill="#92563a"/><path d="M64,240H77.9v17.1H64Z" transform="translate(-34.655 -187.138)" fill="#ffb531"/><path d="M43.241,280.552H27.207A3.207,3.207,0,0,1,24,277.345v-2.138H35.759L38.966,272l2.138,1.069-1.069,2.138h3.207Z" transform="translate(0 -214.862)" fill="#fec9a3"/><path d="M203.207,48h8.552a3.207,3.207,0,0,1,3.207,3.207V58.69a7.483,7.483,0,0,1-14.966,0V51.207A3.207,3.207,0,0,1,203.207,48Z" transform="translate(-152.483 -20.793)" fill="#fec9a3"/><path d="M207.912,34.69l-3.207-5.345-1.556.519a13.468,13.468,0,0,1-9.564-.4A2.848,2.848,0,0,1,194.707,24h8.929a4.276,4.276,0,0,1,4.276,4.276Z" transform="translate(-145.429 0)" fill="#f98500"/><path d="M191.517,188.276V197.9h-4.276v9.621H172.276V197.9H168v-9.621A4.276,4.276,0,0,1,172.276,184h14.966a4.27,4.27,0,0,1,4.276,4.276Z" transform="translate(-124.759 -138.621)" fill="#cfcfcd"/><path d="M219.241,206.227v9.621h-4.276v9.621H200v-5.321a62.169,62.169,0,0,0,18.969-15.428A4.273,4.273,0,0,1,219.241,206.227Z" transform="translate(-152.483 -156.572)" fill="#c7c7c5"/><path d="M235.207,131.207A3.211,3.211,0,0,1,232,128h2.138a1.069,1.069,0,1,0,2.138,0h2.138A3.211,3.211,0,0,1,235.207,131.207Z" transform="translate(-180.207 -90.103)" fill="#f7ad7c"/><path d="M224,96h2.138v2.138H224Z" transform="translate(-173.276 -62.379)" fill="#92563a"/><path d="M272,96h2.138v2.138H272Z" transform="translate(-214.862 -62.379)" fill="#92563a"/><path d="M192,224h2.138v11.759H192Z" transform="translate(-145.552 -173.276)" fill="#b0b0ae"/><path d="M304,224h2.138v11.759H304Z" transform="translate(-242.586 -173.276)" fill="#b0b0ae"/><path d="M240,184l1.069,3.207L240,201.1l2.138,2.138,2.138-2.138-1.069-13.9L244.276,184Z" transform="translate(-187.138 -138.621)" fill="#348fd9"/><path d="M214.966,377.1h-6.414l-1.069-12.828L206.414,377.1H200V360h14.966Z" transform="translate(-152.483 -291.103)" fill="#4d5e78"/><path d="M216,260.276l11.337,5.153a2.138,2.138,0,0,0,.885.192h2.744a2.138,2.138,0,0,0,2.138-2.138v-3.207L218.138,256Z" transform="translate(-166.345 -201)" fill="#dbdbd9"/><path d="M174.414,253.345H168V248h5.345l3.207,1.069Z" transform="translate(-124.759 -194.069)" fill="#fec9a3"/><path d="M185.1,260.276l-11.337,5.153a2.138,2.138,0,0,1-.885.192h-2.744A2.138,2.138,0,0,1,168,263.483v-3.207L182.966,256Z" transform="translate(-124.759 -201)" fill="#e0e0de"/><path d="M282.138,253.345h6.414V248h-5.345L280,249.069Z" transform="translate(-221.793 -194.069)" fill="#fec9a3"/><path d="M64,440H76.828v2.138H64Z" transform="translate(-34.655 -360.414)" fill="#fec093"/><path d="M104,440h2.138v6.414H104Z" transform="translate(-69.31 -360.414)" fill="#feb784"/><path d="M200,360h14.966v2.138H200Z" transform="translate(-152.483 -291.103)" fill="#485870"/></g><g transform="translate(1395.413 335.413)"><g transform="translate(1.587 1.587)" fill="#e2574c" stroke="#707070" stroke-width="1"><circle cx="15" cy="15" r="15" stroke="none"/><circle cx="15" cy="15" r="14.5" fill="none"/></g><path d="M16.614,0A16.614,16.614,0,1,0,33.227,16.614,16.614,16.614,0,0,0,16.614,0Zm0,30.112a13.5,13.5,0,1,1,13.5-13.5A13.5,13.5,0,0,1,16.614,30.112Zm0-22.826c-1.19,0-2.09.621-2.09,1.624v9.2c0,1,.9,1.623,2.09,1.623,1.161,0,2.09-.645,2.09-1.623V8.91C18.7,7.931,17.776,7.286,16.615,7.286Zm0,14.519a2.074,2.074,0,1,0,2.073,2.075A2.076,2.076,0,0,0,16.615,21.805Z" fill="#fff"/></g></g></svg>