<svg xmlns="http://www.w3.org/2000/svg" width="53.382" height="69.629" viewBox="0 0 53.382 69.629"><g transform="translate(-2 -2)"><path d="M39.612,33.059l7.8,1.114a9.284,9.284,0,0,1,7.971,9.19V66.645H2V43.363a9.284,9.284,0,0,1,7.971-9.19l7.8-1.114,5.121,9.215,5.8-6.963,5.8,6.963Z" transform="translate(0 4.984)" fill="#5e87ca"/><path d="M50.16,60V35.023a9.257,9.257,0,0,0-2.748-.849l-7.8-1.114-5.12,9.215-5.8-6.963-5.8,6.963-5.121-9.215-7.8,1.114A9.284,9.284,0,0,0,2,43.363V62.317H47.839A2.321,2.321,0,0,0,50.16,60Z" transform="translate(0 4.984)" fill="#78a0d4"/><path d="M12,52H42.173V63.6H12Z" transform="translate(1.605 8.024)" fill="#c0dafc"/><path d="M12,52H37.531v8.123H12Z" transform="translate(1.605 8.024)" fill="#d7eaff"/><path d="M29.642,31,36.6,32.16,30.8,42.6,25,35.642A4.642,4.642,0,0,0,29.642,31Z" transform="translate(3.691 4.654)" fill="#3b5892"/><path d="M21.963,31,15,32.16,20.8,42.6l5.8-6.963A4.642,4.642,0,0,1,21.963,31Z" transform="translate(2.086 4.654)" fill="#4c6cb5"/><g transform="translate(13.605 19.407)"><path d="M17.8,17H14.321a2.321,2.321,0,1,0,0,4.642H17.8" transform="translate(-12 -17)" fill="#f2b9a1"/><path d="M33,17h3.481a2.321,2.321,0,1,1,0,4.642H33" transform="translate(-8.63 -17)" fill="#f2b9a1"/><path d="M30.284,28.064v3.407a4.642,4.642,0,0,1-9.284,0V28.064a10.462,10.462,0,0,0,9.284,0Z" transform="translate(-10.556 -15.224)" fill="#f2b9a1"/></g><path d="M37.246,18.247l1.336-3.1A8.214,8.214,0,0,0,34.443,4.423L31.2,2.948a10.544,10.544,0,0,0-10.7,1.16L18.52,5.617a6.067,6.067,0,0,0-4.155,8.646l1.991,3.984h.008L18.686,13.6,20.543,15a10.444,10.444,0,0,0,12.533,0L34.933,13.6l2.321,4.642Z" transform="translate(1.882 0)" fill="#c18e59"/><path d="M16,16.642v4.642a10.444,10.444,0,0,0,20.889,0V16.642L34.568,12l-1.857,1.393a10.444,10.444,0,0,1-12.533,0L18.321,12Z" transform="translate(2.247 1.605)" fill="#fbe1ca"/><path d="M11,46h2.321V64.568H11Z" transform="translate(1.444 7.061)" fill="#3b5892"/><path d="M37,46h2.321V64.568H37Z" transform="translate(5.617 7.061)" fill="#3b5892"/></g></svg>