<svg xmlns="http://www.w3.org/2000/svg" width="69.691" height="69.691" viewBox="0 0 69.691 69.691"><path d="M4.356,16H52.268a4.356,4.356,0,0,1,4.356,4.356v58.8a4.356,4.356,0,0,1-4.356,4.356H4.356A4.356,4.356,0,0,1,0,79.158v-58.8A4.356,4.356,0,0,1,4.356,16Zm0,0" transform="translate(0 -13.822)" fill="#ecce93"/><path d="M32,92.459V48H79.913v58.8H46.343Zm0,0" transform="translate(-27.644 -41.466)" fill="#efefef"/><path d="M46.343,374.625v14.343L32,374.625Zm0,0" transform="translate(-27.644 -323.633)" fill="#e76e54"/><path d="M128,8.711V0h21.778V8.711a4.356,4.356,0,0,1-4.356,4.356H132.356A4.356,4.356,0,0,1,128,8.711Zm0,0" transform="translate(-110.577)" fill="#e76e54"/><path d="M263.2,243.6A19.6,19.6,0,1,1,243.6,224,19.6,19.6,0,0,1,263.2,243.6Zm0,0" transform="translate(-193.51 -193.51)" fill="#48c8ef"/><path d="M304.174,336.859l-4.221-4.223a2.178,2.178,0,1,1,3.08-3.08l1.411,1.409,9.864-8.221a2.179,2.179,0,0,1,2.79,3.347Zm0,0" transform="translate(-258.574 -278.377)" fill="#fff"/><g transform="translate(13.067 17.423)"><path d="M162.178,128H179.6a2.178,2.178,0,0,1,0,4.356H162.178a2.178,2.178,0,0,1,0-4.356Zm0,0" transform="translate(-151.289 -128)" fill="#77959e"/><path d="M96,128h4.356v4.356H96Zm0,0" transform="translate(-96 -128)" fill="#77959e"/><path d="M96,192h4.356v4.356H96Zm0,0" transform="translate(-96 -183.289)" fill="#77959e"/><path d="M96,256h4.356v4.356H96Zm0,0" transform="translate(-96 -238.577)" fill="#77959e"/><path d="M96,320h4.356v4.356H96Zm0,0" transform="translate(-96 -293.866)" fill="#77959e"/><path d="M162.178,192h13.067a2.178,2.178,0,1,1,0,4.356H162.178a2.178,2.178,0,0,1,0-4.356Zm0,0" transform="translate(-151.289 -183.289)" fill="#77959e"/><path d="M162.178,256h4.356a2.178,2.178,0,0,1,0,4.356h-4.356a2.178,2.178,0,0,1,0-4.356Zm0,0" transform="translate(-151.289 -238.577)" fill="#77959e"/></g></svg>