<?xml version="1.0" encoding="utf-8"?>
<!-- Generator: Adobe Illustrator 21.0.0, SVG Export Plug-In . SVG Version: 6.00 Build 0)  -->
<svg version="1.1" id="Layer_1" xmlns="http://www.w3.org/2000/svg" xmlns:xlink="http://www.w3.org/1999/xlink" x="0px" y="0px"
	 viewBox="0 0 30 30" style="enable-background:new 0 0 30 30;" xml:space="preserve">
<style type="text/css">
	.st0{fill:#FFFFFF;}
</style>
<g transform="translate(-24 -24.229)">
	<path class="st0" d="M27.4,38.4h2.1v2.1h-2.1V38.4z"/>
	<path class="st0" d="M40.1,49.5c0,0.3-0.2,0.5-0.5,0.5h-3.2c-0.3,0-0.5-0.2-0.5-0.5v-2.6h-2.1v7.4h8.5v-7.4h-2.1L40.1,49.5z
		 M41.1,53.3h-1.1v-1.1h1.1V53.3z"/>
	<path class="st0" d="M36.9,46.9H39V49h-2.1V46.9z"/>
	<path class="st0" d="M30.5,41.1c0,0.3-0.2,0.5-0.5,0.5h-3.2c-0.3,0-0.5-0.2-0.5-0.5v-2.6h-2.1v7.4h8.5v-7.4h-2.1L30.5,41.1z
		 M31.6,44.8h-1.1v-1.1h1.1V44.8z"/>
	<path class="st0" d="M33.7,45.8h9c0.3,0,0.5,0.2,0.5,0.5v7.9H48V42.7H33.7V45.8z"/>
	<path class="st0" d="M30.5,49.5c0,0.3-0.2,0.5-0.5,0.5h-3.2c-0.3,0-0.5-0.2-0.5-0.5v-2.6h-2.1v7.4h8.5v-7.4h-2.1L30.5,49.5z
		 M31.6,53.3h-1.1v-1.1h1.1V53.3z"/>
	<path class="st0" d="M27.4,46.9h2.1V49h-2.1V46.9z"/>
	<path class="st0" d="M37.4,30c0,0.3,0.2,0.5,0.5,0.5h2.1c0.3,0,0.5-0.2,0.5-0.5c0-0.3-0.2-0.5-0.5-0.5l0,0h-2.1
		C37.6,29.4,37.4,29.7,37.4,30z"/>
	<path class="st0" d="M30,34.2h18v1.1H30V34.2z"/>
	<path class="st0" d="M25.8,29.5v7.9h3.2v-3.7c0-0.3,0.2-0.5,0.5-0.5l0,0h19.1c0.3,0,0.5,0.2,0.5,0.5l0,0v20.7h3.2V29.5L39,26.3
		L25.8,29.5z M41.6,30c0,0.9-0.7,1.6-1.6,1.6h-2.1c-0.9,0-1.6-0.7-1.6-1.6c0-0.9,0.7-1.6,1.6-1.6h2.1C40.9,28.4,41.6,29.1,41.6,30z"
		/>
	<path class="st0" d="M33.7,40.5H48v1.1H33.7V40.5z"/>
	<path class="st0" d="M39,24.1l-14.8,3.6v1l14.7-3.5c0.1,0,0.2,0,0.2,0l14.7,3.5v-1L39,24.1z"/>
	<path class="st0" d="M33.7,38.4H48v1.1H33.7V38.4z"/>
	<path class="st0" d="M30,37.4h18v-1.1H30V37.4z"/>
</g>
</svg>
